<?xml version="1.0" encoding="utf-8"?>
<!-- Generator: Adobe Illustrator 28.1.0, SVG Export Plug-In . SVG Version: 6.00 Build 0)  -->
<svg version="1.1" id="Layer_1" xmlns="http://www.w3.org/2000/svg" xmlns:xlink="http://www.w3.org/1999/xlink" x="0px" y="0px"
	 viewBox="0 0 576.5 380.9" style="enable-background:new 0 0 576.5 380.9;" xml:space="preserve">
<style type="text/css">
	.st0{fill-rule:evenodd;clip-rule:evenodd;fill:#FFFFFF;}
	.st1{fill:#FFFFFF;}
</style>
<g>
	<g>
		<path class="st0" d="M173,229.1v-30.4h4.1l16,23.9v-23.9h3.9v30.4h-4.1l-16-23.9v23.9H173z"/>
	</g>
	<g>
		<path class="st0" d="M301.9,121.5V91.1h4.1l16,23.9V91.1h3.9v30.4h-4.1l-16-23.9v23.9H301.9z"/>
	</g>
	<g>
		<path class="st0" d="M135.6,65.9c0-5.1,1.4-9,4.1-11.9c2.7-2.9,6.2-4.3,10.5-4.3c2.8,0,5.3,0.7,7.6,2c2.3,1.3,4,3.2,5.2,5.6
			c1.2,2.4,1.8,5.1,1.8,8.2c0,3.1-0.6,5.8-1.9,8.3c-1.2,2.4-3,4.3-5.3,5.5c-2.3,1.3-4.7,1.9-7.4,1.9c-2.9,0-5.4-0.7-7.7-2.1
			c-2.3-1.4-4-3.3-5.1-5.7C136.2,71.1,135.6,68.5,135.6,65.9z M139.7,65.9c0,3.7,1,6.6,3,8.7s4.4,3.2,7.4,3.2c3,0,5.5-1.1,7.5-3.2
			c2-2.1,2.9-5.2,2.9-9.1c0-2.5-0.4-4.6-1.3-6.5c-0.8-1.8-2.1-3.3-3.7-4.3c-1.6-1-3.4-1.5-5.4-1.5c-2.8,0-5.3,1-7.4,2.9
			S139.7,61.4,139.7,65.9z"/>
	</g>
	<g>
		<path class="st0" d="M106,80.7V50.3h4v12.5h15.8V50.3h4v30.4h-4V66.3H110v14.3H106z"/>
	</g>
	<g>
		<path class="st0" d="M491.4,203.7c0-5.1,1.4-9,4.1-11.9c2.7-2.9,6.2-4.3,10.5-4.3c2.8,0,5.3,0.7,7.6,2c2.3,1.3,4,3.2,5.2,5.6
			c1.2,2.4,1.8,5.1,1.8,8.2c0,3.1-0.6,5.8-1.9,8.3c-1.2,2.4-3,4.3-5.3,5.5c-2.3,1.3-4.7,1.9-7.4,1.9c-2.9,0-5.4-0.7-7.7-2.1
			c-2.3-1.4-4-3.3-5.1-5.7C492,208.9,491.4,206.4,491.4,203.7z M495.6,203.8c0,3.7,1,6.6,3,8.7c2,2.1,4.4,3.2,7.4,3.2
			c3,0,5.5-1.1,7.5-3.2c2-2.1,2.9-5.2,2.9-9.1c0-2.5-0.4-4.6-1.3-6.5c-0.8-1.8-2.1-3.3-3.7-4.3c-1.6-1-3.4-1.5-5.4-1.5
			c-2.8,0-5.3,1-7.4,2.9S495.6,199.2,495.6,203.8z"/>
	</g>
	<g>
		<path class="st0" d="M497.6,311.1c0-5.1,1.4-9,4.1-11.9c2.7-2.9,6.2-4.3,10.5-4.3c2.8,0,5.3,0.7,7.6,2c2.3,1.3,4,3.2,5.2,5.6
			c1.2,2.4,1.8,5.1,1.8,8.2c0,3.1-0.6,5.8-1.9,8.3c-1.2,2.4-3,4.3-5.3,5.5c-2.3,1.3-4.7,1.9-7.4,1.9c-2.9,0-5.4-0.7-7.7-2.1
			c-2.3-1.4-4-3.3-5.1-5.7C498.2,316.3,497.6,313.7,497.6,311.1z M501.8,311.1c0,3.7,1,6.6,3,8.7c2,2.1,4.4,3.2,7.4,3.2
			c3,0,5.5-1.1,7.5-3.2c2-2.1,2.9-5.2,2.9-9.1c0-2.5-0.4-4.6-1.3-6.5c-0.8-1.8-2.1-3.3-3.7-4.3c-1.6-1-3.4-1.5-5.4-1.5
			c-2.8,0-5.3,1-7.4,2.9C502.8,303.3,501.8,306.5,501.8,311.1z"/>
	</g>
	<g>
		<path class="st0" d="M311.3,321.9c0-5.1,1.4-9,4.1-11.9c2.7-2.9,6.2-4.3,10.5-4.3c2.8,0,5.3,0.7,7.6,2c2.3,1.3,4,3.2,5.2,5.6
			c1.2,2.4,1.8,5.1,1.8,8.2c0,3.1-0.6,5.8-1.9,8.3c-1.2,2.4-3,4.3-5.3,5.5s-4.7,1.9-7.4,1.9c-2.9,0-5.4-0.7-7.7-2.1
			c-2.3-1.4-4-3.3-5.1-5.7C311.9,327.1,311.3,324.5,311.3,321.9z M315.5,321.9c0,3.7,1,6.6,3,8.7c2,2.1,4.4,3.2,7.4,3.2
			c3,0,5.5-1.1,7.5-3.2c2-2.1,2.9-5.2,2.9-9.1c0-2.5-0.4-4.6-1.3-6.5c-0.8-1.8-2.1-3.3-3.7-4.3c-1.6-1-3.4-1.5-5.4-1.5
			c-2.8,0-5.3,1-7.4,2.9C316.5,314.1,315.5,317.4,315.5,321.9z"/>
	</g>
	<g>
		<path class="st0" d="M65.7,34.7c0-5.1,1.4-9,4.1-11.9s6.2-4.3,10.5-4.3c2.8,0,5.3,0.7,7.6,2c2.3,1.3,4,3.2,5.2,5.6
			c1.2,2.4,1.8,5.1,1.8,8.2c0,3.1-0.6,5.8-1.9,8.3c-1.2,2.4-3,4.3-5.3,5.5c-2.3,1.3-4.7,1.9-7.4,1.9c-2.9,0-5.4-0.7-7.7-2.1
			c-2.3-1.4-4-3.3-5.1-5.7C66.3,39.9,65.7,37.3,65.7,34.7z M69.9,34.7c0,3.7,1,6.6,3,8.7c2,2.1,4.4,3.2,7.4,3.2c3,0,5.5-1.1,7.5-3.2
			c2-2.1,2.9-5.2,2.9-9.1c0-2.5-0.4-4.6-1.3-6.5c-0.8-1.8-2.1-3.3-3.7-4.3c-1.6-1-3.4-1.5-5.4-1.5c-2.8,0-5.3,1-7.4,2.9
			S69.9,30.1,69.9,34.7z"/>
	</g>
	<g>
		<path class="st1" d="M223.5,168.7c-0.5,0-1-0.2-1.3-0.7l-34.1-51.9c-0.5-0.7-0.3-1.7,0.4-2.2c0.7-0.5,1.7-0.3,2.2,0.4l34.1,51.9
			c0.5,0.7,0.3,1.7-0.4,2.2C224.1,168.6,223.8,168.7,223.5,168.7z"/>
	</g>
	<g>
		<path class="st1" d="M202.4,194.9c-0.3,0-0.7-0.1-1-0.3c-0.7-0.5-0.8-1.5-0.2-2.2l21.1-26.2c0.5-0.7,1.5-0.8,2.2-0.2
			c0.7,0.5,0.8,1.5,0.2,2.2l-21.1,26.2C203.3,194.7,202.9,194.9,202.4,194.9z"/>
	</g>
	<g>
		<path class="st1" d="M188,194.9c-0.3,0-0.7-0.1-1-0.3c-0.7-0.5-0.8-1.5-0.2-2.2l21.8-27.1c0.5-0.7,1.5-0.8,2.2-0.2
			c0.7,0.5,0.8,1.5,0.2,2.2l-21.8,27.1C188.9,194.7,188.5,194.9,188,194.9z"/>
	</g>
	<g>
		<path class="st0" d="M285.5,163.5L285.5,163.5l-62.2-0.5l0.2,4.1l0.2,4.1L285.5,163.5L285.5,163.5z"/>
	</g>
	<g>
		<path class="st1" d="M223.8,171.4l-0.1-0.1l-0.5-8.2l0.1-0.1l62.2,0.5l0,0.2L223.8,171.4z M223.4,163.2l0.5,7.9l59.7-7.4
			L223.4,163.2z"/>
	</g>
	<g>
		<path class="st1" d="M129.4,133.2c-0.7,0-1.3-0.5-1.5-1.2c-0.2-0.8,0.3-1.7,1.1-1.9l60-16.3c0.8-0.2,1.7,0.3,1.9,1.1
			c0.2,0.8-0.3,1.7-1.1,1.9l-60,16.3C129.7,133.1,129.5,133.2,129.4,133.2z"/>
	</g>
	<g>
		<path class="st1" d="M189.4,116.8c-0.2,0-0.5-0.1-0.7-0.2c-0.8-0.4-1.1-1.3-0.7-2.1l27.9-55.7c0.4-0.8,1.3-1.1,2.1-0.7
			c0.8,0.4,1.1,1.3,0.7,2.1L190.8,116C190.6,116.5,190,116.8,189.4,116.8z"/>
	</g>
	<g>
		<path class="st1" d="M169,97.4c-0.5,0-0.9-0.2-1.2-0.6c-0.5-0.7-0.4-1.7,0.3-2.2l5.5-4.3c0.7-0.5,1.7-0.4,2.2,0.3
			c0.5,0.7,0.4,1.7-0.3,2.2L170,97C169.7,97.3,169.4,97.4,169,97.4z"/>
	</g>
	<g>
		<path class="st1" d="M177.2,105.3c-0.5,0-0.9-0.2-1.2-0.6c-0.5-0.7-0.4-1.7,0.3-2.2l3.4-2.6c0.7-0.5,1.7-0.4,2.2,0.3
			c0.5,0.7,0.4,1.7-0.3,2.2l-3.4,2.6C177.9,105.2,177.5,105.3,177.2,105.3z"/>
	</g>
	<g>
		<path class="st1" d="M185.6,113.2c-0.4,0-0.8-0.2-1.1-0.5c-0.6-0.6-0.6-1.6,0-2.2l1-1c0.6-0.6,1.6-0.6,2.2,0
			c0.6,0.6,0.6,1.6,0,2.2l-1,1C186.4,113.1,186,113.2,185.6,113.2z"/>
	</g>
	<g>
		<path class="st1" d="M164.2,209.5c-0.2,0-0.4,0-0.6-0.1L126,195c-0.8-0.3-1.2-1.2-0.9-2c0.3-0.8,1.2-1.2,2-0.9l37.7,14.4
			c0.8,0.3,1.2,1.2,0.9,2C165.4,209.1,164.9,209.5,164.2,209.5z"/>
	</g>
	<g>
		<path class="st1" d="M129.4,133.2c-0.3,0-0.6-0.1-0.8-0.2L76.2,99.3c-0.7-0.5-0.9-1.4-0.5-2.2c0.5-0.7,1.4-0.9,2.2-0.5l52.3,33.6
			c0.7,0.5,0.9,1.4,0.5,2.2C130.4,132.9,129.9,133.2,129.4,133.2z"/>
	</g>
	<g>
		<path class="st1" d="M126.5,195.1C126.5,195.1,126.5,195.1,126.5,195.1c-0.9,0-1.6-0.8-1.6-1.6l2.9-62c0-0.9,0.8-1.5,1.6-1.5
			c0.9,0,1.5,0.8,1.5,1.6l-2.9,62C128.1,194.5,127.4,195.1,126.5,195.1z"/>
	</g>
	<g>
		<path class="st1" d="M115.5,189.8C115.5,189.8,115.4,189.8,115.5,189.8c-0.9,0-1.6-0.8-1.6-1.6l2.4-52.4c0-0.9,0.8-1.5,1.6-1.5
			c0.9,0,1.5,0.8,1.5,1.6l-2.4,52.4C117,189.2,116.3,189.8,115.5,189.8z"/>
	</g>
	<g>
		<path class="st0" d="M381.8,212.1L381.8,212.1l30.5,54.3l3.6-2.4l3.6-2.4L381.8,212.1L381.8,212.1z"/>
	</g>
	<g>
		<path class="st1" d="M412.3,266.4l-0.2,0l-30.5-54.3l0.2-0.1l37.7,49.5l0,0.2L412.3,266.4z M382.7,213.6l29.5,52.6l7-4.7
			L382.7,213.6z"/>
	</g>
	<g>
		<path class="st1" d="M415.9,265.5c-0.8,0-1.5-0.6-1.6-1.5c0-0.9,0.6-1.6,1.5-1.6l61.9-3.6c0.9,0,1.6,0.6,1.6,1.5
			c0,0.9-0.6,1.6-1.5,1.6L415.9,265.5C415.9,265.5,415.9,265.5,415.9,265.5z"/>
	</g>
	<g>
		<path class="st1" d="M387.8,321c-0.2,0-0.5-0.1-0.7-0.2c-0.8-0.4-1.1-1.3-0.7-2.1l28.1-55.5c0.4-0.8,1.3-1.1,2.1-0.7
			c0.8,0.4,1.1,1.3,0.7,2.1l-28.1,55.5C388.9,320.6,388.3,321,387.8,321z"/>
	</g>
	<g>
		<path class="st1" d="M379.8,311.6c-0.2,0-0.5-0.1-0.7-0.2c-0.8-0.4-1.1-1.3-0.7-2.1l23.8-46.8c0.4-0.8,1.3-1.1,2.1-0.7
			c0.8,0.4,1.1,1.3,0.7,2.1l-23.8,46.8C381,311.3,380.4,311.6,379.8,311.6z"/>
	</g>
	<g>
		<path class="st1" d="M285.5,165.1c-0.2,0-0.5-0.1-0.7-0.2c-0.8-0.4-1.1-1.3-0.7-2.1l16.8-33.4c0.4-0.8,1.3-1.1,2.1-0.7
			c0.8,0.4,1.1,1.3,0.7,2.1l-16.8,33.4C286.6,164.8,286,165.1,285.5,165.1z"/>
	</g>
	<g>
		<path class="st1" d="M319.6,217.2c-0.5,0-1-0.2-1.3-0.7l-34.1-52.1c-0.5-0.7-0.3-1.7,0.5-2.2c0.7-0.5,1.7-0.3,2.2,0.5l34.1,52.1
			c0.5,0.7,0.3,1.7-0.5,2.2C320.2,217.1,319.9,217.2,319.6,217.2z"/>
	</g>
	<g>
		<path class="st1" d="M333.7,108.4c-0.8,0-1.5-0.6-1.6-1.5c0-0.9,0.6-1.6,1.5-1.6l41.8-2.4c0.9-0.1,1.6,0.6,1.6,1.5
			c0,0.9-0.6,1.6-1.5,1.6L333.7,108.4C333.8,108.4,333.8,108.4,333.7,108.4z"/>
	</g>
	<g>
		<path class="st1" d="M298.9,87.3c-0.5,0-1-0.2-1.3-0.7l-19.4-29.5c-0.5-0.7-0.3-1.7,0.4-2.2c0.7-0.5,1.7-0.3,2.2,0.4l19.4,29.5
			c0.5,0.7,0.3,1.7-0.4,2.2C299.5,87.2,299.2,87.3,298.9,87.3z"/>
	</g>
	<g>
		<path class="st1" d="M71.3,223.7c-0.6,0-1.1-0.3-1.4-0.8c-0.4-0.8-0.1-1.7,0.7-2.1l55.2-28.6c0.8-0.4,1.7-0.1,2.1,0.7
			s0.1,1.7-0.7,2.1L72,223.5C71.8,223.6,71.6,223.7,71.3,223.7z"/>
	</g>
	<g>
		<path class="st1" d="M319.6,217.2c-0.8,0-1.5-0.6-1.6-1.5c0-0.9,0.6-1.6,1.5-1.6l62.2-3.6c0.9,0,1.6,0.6,1.6,1.5
			c0,0.9-0.6,1.6-1.5,1.6L319.6,217.2C319.6,217.2,319.6,217.2,319.6,217.2z"/>
	</g>
	<g>
		<path class="st1" d="M381.8,213.6c-0.2,0-0.5-0.1-0.7-0.2c-0.8-0.4-1.1-1.3-0.7-2.1l27.9-55.5c0.4-0.8,1.3-1.1,2.1-0.7
			c0.8,0.4,1.1,1.3,0.7,2.1l-27.9,55.5C382.9,213.3,382.3,213.6,381.8,213.6z"/>
	</g>
	<g>
		<path class="st1" d="M217.3,61.1c-0.8,0-1.5-0.6-1.6-1.5c0-0.9,0.6-1.6,1.5-1.6l62.2-3.4c0.9,0,1.6,0.6,1.6,1.5s-0.6,1.6-1.5,1.6
			L217.3,61.1C217.3,61.1,217.3,61.1,217.3,61.1z"/>
	</g>
	<g>
		<path class="st1" d="M482.8,264.5c-0.2,0-0.5-0.1-0.7-0.2c-0.8-0.4-1.1-1.3-0.7-2.1l18-35.8c0.4-0.8,1.3-1.1,2.1-0.7
			c0.8,0.4,1.1,1.3,0.7,2.1l-18,35.8C484,264.2,483.4,264.5,482.8,264.5z"/>
	</g>
	<g>
		<path class="st1" d="M472.8,259.5c-0.2,0-0.5-0.1-0.7-0.2c-0.8-0.4-1.1-1.3-0.7-2.1l15.4-30.7c0.4-0.8,1.3-1.1,2.1-0.7
			c0.8,0.4,1.1,1.3,0.7,2.1l-15.4,30.7C473.9,259.2,473.3,259.5,472.8,259.5z"/>
	</g>
	<g>
		<path class="st1" d="M497.2,291.7c-0.5,0-1-0.2-1.3-0.7l-19.4-29.8c-0.5-0.7-0.3-1.7,0.5-2.2c0.7-0.5,1.7-0.3,2.2,0.5l19.4,29.8
			c0.5,0.7,0.3,1.7-0.5,2.2C497.8,291.6,497.5,291.7,497.2,291.7z"/>
	</g>
	<g>
		<path class="st1" d="M409.6,158.1c-0.5,0-1-0.2-1.3-0.7l-34.1-52.1c-0.5-0.7-0.3-1.7,0.5-2.2c0.7-0.5,1.7-0.3,2.2,0.5l34.1,52.1
			c0.5,0.7,0.3,1.7-0.5,2.2C410.2,158.1,409.9,158.1,409.6,158.1z"/>
	</g>
	<g>
		<path class="st0" d="M409.6,156.6L409.6,156.6l62.2,0.5l-0.2-4.1l-0.2-4.1L409.6,156.6L409.6,156.6z"/>
	</g>
	<g>
		<path class="st1" d="M471.8,157.2l-62.2-0.5l0-0.2l61.7-7.7l0.1,0.1l0.5,8.2L471.8,157.2z M411.5,156.5l60.2,0.5l-0.5-7.9
			L411.5,156.5z"/>
	</g>
	<g>
		<path class="st1" d="M347.4,323.4c-0.8,0-1.5-0.6-1.6-1.5c-0.1-0.9,0.6-1.6,1.5-1.7l40.3-2.4c0.9,0,1.6,0.6,1.7,1.5
			c0.1,0.9-0.6,1.6-1.5,1.7L347.4,323.4C347.5,323.4,347.5,323.4,347.4,323.4z"/>
	</g>
	<g>
		<path class="st1" d="M77.1,99.5C77,99.5,77,99.5,77.1,99.5c-0.9,0-1.6-0.8-1.6-1.6L77.4,58c0-0.9,0.8-1.5,1.6-1.5
			c0.9,0,1.5,0.8,1.5,1.6l-1.9,39.9C78.6,98.9,77.9,99.5,77.1,99.5z"/>
	</g>
	<g>
		<path class="st1" d="M21.9,127.9c-0.6,0-1.1-0.3-1.4-0.8c-0.4-0.8-0.1-1.7,0.7-2.1l55.2-28.3c0.8-0.4,1.7-0.1,2.1,0.7
			c0.4,0.8,0.1,1.7-0.7,2.1l-55.2,28.3C22.3,127.8,22.1,127.9,21.9,127.9z"/>
	</g>
	<g>
		<path class="st1" d="M31.2,135.8c-0.6,0-1.1-0.3-1.4-0.8c-0.4-0.8-0.1-1.7,0.7-2.1l46.8-24c0.8-0.4,1.7-0.1,2.1,0.7
			c0.4,0.8,0.1,1.7-0.7,2.1l-46.8,24C31.7,135.8,31.5,135.8,31.2,135.8z"/>
	</g>
	<g>
		<path class="st1" d="M533.7,312.8c-0.8,0-1.5-0.6-1.6-1.5c-0.1-0.9,0.6-1.6,1.5-1.7l40.3-2.4c0.9,0,1.6,0.6,1.7,1.5
			c0.1,0.9-0.6,1.6-1.5,1.7L533.7,312.8C533.8,312.8,533.8,312.8,533.7,312.8z"/>
	</g>
	<g>
		<path class="st1" d="M71.3,223.7c-0.3,0-0.6-0.1-0.8-0.2l-52.3-33.6c-0.7-0.5-0.9-1.4-0.5-2.2c0.5-0.7,1.4-0.9,2.2-0.5l52.3,33.6
			c0.7,0.5,0.9,1.4,0.5,2.2C72.3,223.4,71.8,223.7,71.3,223.7z"/>
	</g>
	<g>
		<path class="st1" d="M73.2,211.7c-0.3,0-0.6-0.1-0.8-0.2l-44.2-28.6c-0.7-0.5-0.9-1.4-0.5-2.2c0.5-0.7,1.4-0.9,2.2-0.5l44.2,28.6
			c0.7,0.5,0.9,1.4,0.5,2.2C74.2,211.4,73.7,211.7,73.2,211.7z"/>
	</g>
	<g>
		<path class="st1" d="M297.7,380c-0.2,0-0.5-0.1-0.7-0.2c-0.8-0.4-1.1-1.3-0.7-2.1l16.8-33.1c0.4-0.8,1.3-1.1,2.1-0.7
			c0.8,0.4,1.1,1.3,0.7,2.1l-16.8,33.1C298.8,379.7,298.3,380,297.7,380z"/>
	</g>
	<g>
		<path class="st1" d="M58.1,23.4c-0.3,0-0.6-0.1-0.9-0.3L27,3.5C26.3,3,26.1,2,26.5,1.3C27,0.6,28,0.4,28.7,0.9L59,20.5
			c0.7,0.5,0.9,1.4,0.5,2.2C59.1,23.2,58.6,23.4,58.1,23.4z"/>
	</g>
	<g>
		<path class="st1" d="M471.6,154.5c-0.2,0-0.5-0.1-0.7-0.2c-0.8-0.4-1.1-1.3-0.7-2.1l28.1-55.5c0.4-0.8,1.3-1.1,2.1-0.7
			c0.8,0.4,1.1,1.3,0.7,2.1l-28.1,55.5C472.7,154.2,472.1,154.5,471.6,154.5z"/>
	</g>
	<g>
		<path class="st1" d="M19,190.1C18.9,190.1,18.9,190.1,19,190.1c-0.9,0-1.6-0.8-1.6-1.6l2.9-62.2c0-0.9,0.8-1.5,1.6-1.5
			c0.9,0,1.5,0.8,1.5,1.6l-2.9,62.2C20.5,189.4,19.8,190.1,19,190.1z"/>
	</g>
</g>
</svg>
